HIERARCHY
ROOT RootJoint
{
    OFFSET   0.000000   0.000000   0.000000
    CHANNELS 6 Xposition Yposition Zposition Xrotation Yrotation Zrotation
    JOINT pelvis_lowerback
    {
        OFFSET   0.000000   0.093605   0.000000
        CHANNELS 3 Xrotation Yrotation Zrotation
        JOINT lowerback_torso
        {
            OFFSET   0.000000   0.100000   0.000000
            CHANNELS 3 Xrotation Yrotation Zrotation
            JOINT torso_head
            {
                OFFSET   0.000000   0.282350   0.000000
                CHANNELS 3 Xrotation Yrotation Zrotation
                End Site
                {
                    OFFSET   0.000000   0.192650   0.000000
                }
            }
            JOINT rTorso_Clavicle
            {
                OFFSET  -0.001000   0.157500   0.000000
                CHANNELS 3 Xrotation Yrotation Zrotation
                JOINT rShoulder
                {
                    OFFSET  -0.117647   0.000000   0.000000
                    CHANNELS 3 Xrotation Yrotation Zrotation
                    JOINT rElbow
                    {
                        OFFSET  -0.245000   0.000000   0.000000
                        CHANNELS 3 Xrotation Yrotation Zrotation
                        JOINT rWrist
                        {
                            OFFSET  -0.240000   0.000000   0.000000
                            CHANNELS 3 Xrotation Yrotation Zrotation
                            End Site
                            {
                                OFFSET  -0.116353  -0.002500   0.000000
                            }
                        }
                    }
                }
            }
            JOINT lTorso_Clavicle
            {
                OFFSET   0.001000   0.157500   0.000000
                CHANNELS 3 Xrotation Yrotation Zrotation
                JOINT lShoulder
                {
                    OFFSET   0.117647   0.000000   0.000000
                    CHANNELS 3 Xrotation Yrotation Zrotation
                    JOINT lElbow
                    {
                        OFFSET   0.245000   0.000000   0.000000
                        CHANNELS 3 Xrotation Yrotation Zrotation
                        JOINT lWrist
                        {
                            OFFSET   0.240000   0.000000   0.000000
                            CHANNELS 3 Xrotation Yrotation Zrotation
                            End Site
                            {
                                OFFSET   0.116353  -0.002500   0.000000
                            }
                        }
                    }
                }
            }
        }
    }
    JOINT rHip
    {
        OFFSET  -0.100000  -0.051395   0.000000
        CHANNELS 3 Xrotation Yrotation Zrotation
        JOINT rKnee
        {
            OFFSET   0.000000  -0.410000   0.000000
            CHANNELS 3 Xrotation Yrotation Zrotation
            JOINT rAnkle
            {
                OFFSET   0.000000  -0.390000   0.000000
                CHANNELS 3 Xrotation Yrotation Zrotation
                JOINT rToeJoint
                {
                    OFFSET   0.000000  -0.050000   0.130000
                    CHANNELS 3 Xrotation Yrotation Zrotation
                    End Site
                    {
                        OFFSET  -0.010000   0.002000   0.060000
                    }
                }
            }
        }
    }
    JOINT lHip
    {
        OFFSET   0.100000  -0.051395   0.000000
        CHANNELS 3 Xrotation Yrotation Zrotation
        JOINT lKnee
        {
            OFFSET   0.000000  -0.410000   0.000000
            CHANNELS 3 Xrotation Yrotation Zrotation
            JOINT lAnkle
            {
                OFFSET   0.000000  -0.390000   0.000000
                CHANNELS 3 Xrotation Yrotation Zrotation
                JOINT lToeJoint
                {
                    OFFSET   0.000000  -0.050000   0.130000
                    CHANNELS 3 Xrotation Yrotation Zrotation
                    End Site
                    {
                        OFFSET   0.010000   0.002000   0.060000
                    }
                }
            }
        }
    }
}
MOTION
Frames: 11
Frame Time:   0.008333
 -2.393546   0.352932   4.330243  -7.703539  -9.012050   3.305794  16.573735  -2.523416  -3.453234   2.399455  -1.733589   0.750603   4.340988  -0.407643   1.058676  -0.729680  -2.724391  10.445430  -8.870535  -7.292037  25.617561  -0.000364  52.303328  -0.000056   6.540635   3.517728  -6.994412   3.241210   2.023454  -9.579793   7.346058  -0.897379 -32.711020  -0.008600 -42.263532  -0.002472   8.952698  -3.665079   2.422853 -63.909693   8.380584  -5.410680 149.392050  -0.000642  -0.000105 -70.175478  -1.631349   5.483422 -10.689344  -0.000986  -0.000820 -53.069540   6.602087   5.283146 149.868528  -0.000841   0.000372 -69.996612   1.471688  -1.606694 -29.159268  -0.000067  -0.000998
 -2.393484   0.351858   4.328891  -7.568931  -9.121951   3.410016  16.592265  -2.457609  -3.423079   2.250863  -1.731605   0.698115   4.167596  -0.318378   0.996334  -0.773497  -2.671423  10.470969  -8.801105  -7.251254  25.702600  -0.000513  52.220366   0.000056   6.599686   3.545662  -7.022573   3.176100   2.049497  -9.681171   7.454280  -0.941913 -32.994625  -0.008949 -41.579708  -0.002386   8.976954  -3.693496   2.436456 -64.453460   8.451061  -5.385662 149.502260  -0.000647  -0.000057 -70.151106  -1.618720   5.438726 -10.323603  -0.000854  -0.000930 -53.481894   6.567981   5.233468 149.981923  -0.000852   0.000361 -69.998077   1.405794  -1.694371 -26.440312   0.001765  -0.005745
 -2.393369   0.350745   4.327418  -7.440760  -9.208654   3.517106  16.640677  -2.398990  -3.400807   2.107232  -1.731648   0.650861   3.993309  -0.233815   0.937943  -0.815305  -2.610992  10.522722  -8.732162  -7.209197  25.802710  -0.000671  52.142911   0.000180   6.655575   3.574432  -7.032867   3.113391   2.062069  -9.794486   7.555430  -0.988322 -33.271257  -0.009277 -40.934489  -0.002430   8.996004  -3.672694   2.430997 -65.002649   8.526107  -5.374816 149.608997  -0.000637  -0.000025 -70.131403  -1.608190   5.394278  -9.914071  -0.000734  -0.001021 -53.907904   6.515959   5.183822 150.098177  -0.000853   0.000367 -69.999309   1.356949  -1.780646 -26.629203   0.001344  -0.004287
 -2.393217   0.349602   4.325882  -7.338284  -9.276397   3.614781  16.712372  -2.343307  -3.377348   1.988541  -1.729382   0.608556   3.831830  -0.154778   0.883144  -0.854135  -2.546698  10.589025  -8.664585  -7.166632  25.909541  -0.000814  52.070430   0.000303   6.709007   3.603340  -7.016650   3.053330   2.067298  -9.913676   7.649106  -1.037276 -33.538332  -0.009449 -40.332686  -0.002484   9.014048  -3.647564   2.405949 -65.525597   8.599597  -5.367772 149.713318  -0.000612  -0.000004 -70.115464  -1.599714   5.351578  -9.486576  -0.000621  -0.001060 -54.330174   6.473737   5.142605 150.216009  -0.000824   0.000358 -70.000546   1.308268  -1.867585 -26.693137   0.001043  -0.003343
 -2.392977   0.348381   4.324232  -7.228112  -9.382497   3.722556  16.785156  -2.270762  -3.369364   1.880910  -1.710830   0.560080   3.681676  -0.080241   0.830577  -0.892656  -2.476386  10.659491  -8.600891  -7.120376  26.017839  -0.000914  52.004755   0.000401   6.761360   3.640699  -6.977845   2.999538   2.074267 -10.031998   7.738188  -1.083354 -33.793621  -0.009444 -39.771161  -0.002567   9.031168  -3.626323   2.367837 -65.974419   8.657115  -5.354709 149.694834  -0.000467  -0.000009 -70.102875  -1.593494   5.323454 -10.425444  -0.000097  -0.000094 -54.779933   6.460751   5.117303 150.337825  -0.000818   0.000345 -70.001906   1.257357  -1.959691 -26.656414   0.000856  -0.002728
 -2.392770   0.347137   4.322645  -7.181736  -9.418531   3.796163  16.888052  -2.223825  -3.339415   1.808092  -1.704662   0.528662   3.546580  -0.011411   0.783090  -0.925603  -2.412722  10.735804  -8.538256  -7.079912  26.124538  -0.000994  51.941369   0.000485   6.810939   3.671347  -6.927665   2.947823   2.075461 -10.150510   7.820436  -1.130207 -34.036409  -0.009236 -39.247366  -0.002510   9.048359  -3.607767   2.318236 -66.445924   8.744898  -5.340449 149.833725  -0.000452  -0.000013 -70.092508  -1.557681   5.267402  -9.735538   0.000113  -0.000055 -55.174577   6.428108   5.082842 150.471149  -0.000767   0.000318 -70.002973   1.221653  -2.041485 -26.565940   0.000739  -0.002263
 -2.392558   0.345894   4.321067  -7.156691  -9.433001   3.854894  16.993221  -2.177202  -3.306003   1.749470  -1.697928   0.504681   3.422638   0.053123   0.739348  -0.953979  -2.353940  10.816293  -8.476975  -7.043709  26.229797  -0.001048  51.880729   0.000548   6.857840   3.694940  -6.866656   2.900072   2.076588 -10.267410   7.897520  -1.174893 -34.266775  -0.008871 -38.758456  -0.002333   9.065031  -3.591667   2.262814 -66.879478   8.819797  -5.326204 149.964410  -0.000414  -0.000014 -70.084109  -1.539387   5.225805  -9.107526   0.000213  -0.000033 -55.554618   6.402978   5.058901 150.605424  -0.000687   0.000278 -70.003956   1.193599  -2.121673 -26.419760   0.000688  -0.001889
 -2.392515   0.344599   4.319419  -7.094477  -9.457017   3.915666  17.077905  -2.090538  -3.300036   1.666688  -1.681517   0.475915   3.239888   0.116510   0.721570  -0.987848  -2.296383  10.901467  -8.348818  -7.068253  26.321714  -0.001117  51.814971   0.000649   6.907290   3.773571  -6.752063   2.839321   2.049291 -10.328108   8.001871  -1.247563 -34.505926  -0.008783 -38.204571  -0.002329   9.080023  -3.603462   2.185302 -67.377237   8.856047  -5.270323 150.095234  -0.000384   0.000040 -70.076590  -1.562174   5.188073  -8.488660   0.000046  -0.000182 -55.952399   6.290235   5.040881 150.749275  -0.000690   0.000347 -70.004828   1.069214  -2.073933 -26.267682   0.000459  -0.001858
 -2.392498   0.343288   4.317783  -7.054842  -9.472521   3.975843  17.174149  -2.007484  -3.295376   1.592651  -1.666107   0.441039   3.062604   0.176923   0.703167  -1.015130  -2.245893  10.979915  -8.225521  -7.096509  26.406102  -0.001157  51.749199   0.000725   6.953957   3.833884  -6.621801   2.783112   2.020883 -10.385914   8.100186  -1.315326 -34.729954  -0.008530 -37.683556  -0.002249   9.093712  -3.585694   2.093280 -67.843520   8.889266  -5.223749 150.226537  -0.000358   0.000086 -70.070441  -1.580098   5.152351  -7.916700  -0.000102  -0.000261 -56.358888   6.208486   5.039913 150.897363  -0.000646   0.000380 -70.006153   1.008479  -2.146649 -26.049667   0.000418  -0.001697
 -2.392509   0.341979   4.316156  -7.034220  -9.478423   4.036266  17.273324  -1.931173  -3.294724   1.530055  -1.652766   0.404450   2.897513   0.233529   0.685500  -1.039059  -2.201155  11.053450  -8.109383  -7.124965  26.484403  -0.001162  51.686361   0.000768   6.997782   3.882277  -6.493022   2.731297   1.994784 -10.442292   8.192251  -1.378376 -34.940160  -0.008152 -37.196492  -0.002104   9.106595  -3.560428   1.999925 -68.281539   8.918424  -5.184921 150.356310  -0.000333   0.000126 -70.065321  -1.599578   5.119446  -7.382334  -0.000239  -0.000308 -56.745155   6.135875   5.042068 151.042055  -0.000585   0.000399 -70.007398   0.950207  -2.213461 -25.803091   0.000380  -0.001557
 -2.392546   0.340680   4.314541  -7.031531  -9.477156   4.095628  17.373178  -1.860576  -3.296853   1.477409  -1.640770   0.367173   2.744379   0.286447   0.668758  -1.060563  -2.161053  11.122000  -8.000474  -7.152733  26.557063  -0.001137  51.626994   0.000782   7.039290   3.923804  -6.369275   2.683686   1.971270 -10.497096   8.278522  -1.437007 -35.137655  -0.007684 -36.741576  -0.001910   9.118897  -3.533943   1.907370 -68.692580   8.943207  -5.150873 150.483711  -0.000309   0.000162 -70.061026  -1.620770   5.089246  -6.879169  -0.000366  -0.000333 -57.110866   6.070292   5.046432 151.182876  -0.000517   0.000408 -70.008556   0.896892  -2.276094 -25.534433   0.000344  -0.001423
